<?xml version="1.0" standalone="no"?>
<!DOCTYPE svg PUBLIC "-//W3C//DTD SVG 20010904//EN"
 "http://www.w3.org/TR/2001/REC-SVG-20010904/DTD/svg10.dtd">
<svg version="1.0" xmlns="http://www.w3.org/2000/svg"
 width="381.000000pt" height="649.000000pt" viewBox="0 0 381.000000 649.000000"
 preserveAspectRatio="xMidYMid meet">

<g transform="translate(0.000000,649.000000) scale(0.100000,-0.100000)"
fill="#000000" stroke="none">
<path d="M3457 6484 c-4 -4 -7 -350 -8 -768 l0 -761 -190 735 c-104 404 -192
736 -194 739 -16 16 -13 -34 14 -251 17 -134 58 -454 91 -713 32 -258 61 -488
64 -510 l5 -40 -14 30 c-8 17 -76 185 -151 375 -213 541 -363 921 -382 967
-28 71 -44 54 -22 -24 50 -183 361 -1406 358 -1409 -2 -2 -41 65 -86 149 -45
84 -123 226 -173 317 -50 91 -117 212 -149 270 -31 58 -105 192 -164 298 -59
106 -118 216 -132 243 -14 27 -32 49 -39 49 -8 0 2 -35 28 -100 22 -55 42 -99
44 -96 2 2 -7 32 -21 67 -15 34 -26 67 -26 73 0 6 45 -72 101 -174 55 -102
125 -228 154 -280 80 -145 181 -328 408 -742 44 -82 82 -147 83 -145 3 3 -369
1465 -380 1493 -3 9 -1 12 4 9 6 -3 10 -10 10 -15 0 -5 93 -242 206 -527 113
-285 240 -605 281 -710 42 -106 78 -191 80 -190 1 2 -8 89 -22 193 -108 837
-165 1300 -163 1313 2 8 89 -318 193 -724 l190 -740 5 780 c3 429 6 775 8 769
2 -10 13 -95 127 -1004 36 -283 67 -522 70 -530 11 -36 -10 142 -75 655 -39
303 -79 627 -91 720 -21 178 -30 221 -42 209z m-390 -106 c-3 -8 -6 -5 -6 6
-1 11 2 17 5 13 3 -3 4 -12 1 -19z"/>
<path d="M1924 5973 c6 -15 212 -390 622 -1133 56 -102 101 -186 99 -188 -1
-1 -34 30 -72 70 -109 115 -233 246 -314 333 -85 91 -196 209 -320 340 -103
108 -244 260 -278 297 -13 15 -28 25 -34 21 -6 -3 -7 -1 -4 4 7 12 -20 39 -29
30 -8 -8 27 -58 36 -52 6 4 176 -169 309 -314 13 -14 81 -87 151 -161 70 -74
138 -147 151 -161 85 -93 453 -479 456 -479 5 0 -7 21 -65 125 -25 44 -93 168
-152 275 -59 107 -145 263 -190 345 -45 83 -98 179 -118 215 -19 36 -52 94
-72 130 -68 118 -132 241 -128 245 2 2 195 -259 428 -580 233 -321 428 -581
434 -578 5 3 6 1 3 -4 -4 -6 2 -22 14 -34 29 -33 73 -149 -393 1024 -50 125
-92 226 -94 224 -3 -2 14 -51 37 -108 23 -57 88 -221 144 -364 57 -143 144
-363 194 -489 50 -126 89 -231 88 -233 -2 -2 -204 271 -448 607 -244 335 -447
610 -452 610 -5 0 -6 -8 -3 -17z m36 -33 c6 -11 8 -20 6 -20 -3 0 -10 9 -16
20 -6 11 -8 20 -6 20 3 0 10 -9 16 -20z"/>
<path d="M1631 5684 c6 -17 843 -1163 847 -1159 4 3 -820 1139 -840 1160 -7 7
-9 6 -7 -1z"/>
<path d="M1300 5459 c0 -6 73 -89 162 -183 90 -94 195 -205 233 -246 39 -41
116 -122 171 -180 125 -133 367 -389 427 -454 25 -28 44 -53 41 -57 -2 -4 12
-17 32 -28 l36 -21 -21 26 c-11 14 -93 103 -183 197 -90 95 -199 210 -243 257
-43 47 -113 120 -155 164 -41 43 -80 83 -85 90 -6 6 -86 91 -179 189 -93 98
-166 180 -163 184 3 3 61 -41 129 -97 68 -56 143 -119 167 -139 25 -20 90 -74
147 -121 56 -47 162 -134 235 -195 218 -180 391 -323 442 -366 26 -22 47 -37
47 -34 0 14 -53 74 -60 70 -5 -3 -77 52 -162 122 -187 156 -419 347 -513 425
-38 31 -115 94 -170 140 -55 46 -123 101 -150 123 -26 22 -77 64 -111 93 -65
54 -74 59 -74 41z m55 -39 c10 -11 16 -20 13 -20 -3 0 -13 9 -23 20 -10 11
-16 20 -13 20 3 0 13 -9 23 -20z"/>
<path d="M1037 5154 c-6 -7 28 -36 357 -308 119 -98 216 -181 216 -183 0 -3
-20 -42 -46 -88 l-45 -84 -92 43 c-51 24 -166 78 -257 121 -91 43 -207 97
-257 121 -97 45 -129 41 -50 -7 130 -80 574 -363 585 -373 10 -10 5 -27 -28
-87 -23 -41 -45 -78 -49 -82 -5 -5 -161 41 -348 101 -373 121 -371 121 -373
108 -1 -4 146 -78 326 -162 180 -85 329 -156 332 -159 2 -2 -4 -18 -14 -36
-13 -21 -48 -47 -106 -79 l-88 -48 -281 54 c-311 60 -299 58 -299 45 0 -5 100
-42 223 -81 122 -40 225 -75 229 -78 4 -4 -87 -58 -201 -119 -200 -109 -209
-113 -269 -113 -67 0 -83 -13 -29 -24 31 -7 31 -7 10 -19 -20 -11 2 -25 260
-167 l282 -155 -85 -6 c-47 -4 -183 -12 -302 -19 -158 -9 -218 -16 -218 -25 0
-9 45 -14 161 -20 88 -4 163 -4 166 -1 4 3 -27 7 -68 7 -41 1 -108 4 -149 8
l-75 6 80 7 c44 4 176 13 294 19 l214 13 74 -40 74 -39 -58 -6 -58 -6 67 -1
c99 -3 130 -21 173 -104 20 -37 33 -68 30 -68 -17 0 -899 -171 -904 -175 -2
-3 -2 -8 1 -11 3 -3 225 9 493 26 268 17 489 29 490 28 15 -23 65 -121 63
-123 -2 -1 -76 -27 -165 -56 -90 -29 -161 -54 -159 -57 3 -2 75 19 161 48 86
28 162 49 169 47 6 -3 24 -28 39 -56 21 -38 25 -52 15 -56 -23 -8 -971 -185
-974 -182 -2 2 40 17 94 34 53 18 184 60 290 94 106 34 190 64 188 66 -7 8
-626 -198 -626 -208 0 -5 2 -9 4 -9 6 0 999 189 1022 195 17 4 26 -5 48 -44
14 -27 26 -52 26 -56 0 -3 -48 -29 -107 -57 -60 -28 -164 -77 -232 -109 -68
-33 -125 -59 -126 -59 -2 0 -82 -38 -177 -83 -95 -46 -180 -86 -188 -90 -8 -3
-10 -6 -4 -6 7 -1 70 26 140 60 148 70 273 129 359 169 33 15 122 58 199 94
76 36 142 64 146 61 5 -3 22 -30 38 -60 l30 -54 -82 -26 c-44 -15 -238 -77
-431 -140 -192 -62 -360 -116 -373 -120 -13 -4 -21 -9 -19 -12 3 -2 208 62
457 142 428 139 452 146 465 129 12 -18 14 -17 26 9 11 24 31 33 183 82 93 30
171 53 173 52 1 -2 -118 -79 -265 -172 -695 -440 -848 -538 -857 -548 -14 -15
38 16 225 135 91 58 345 219 565 358 220 139 405 257 410 263 7 6 7 8 0 5 -21
-11 -397 -129 -401 -126 -2 2 23 51 54 108 l57 104 115 53 c63 29 112 53 109
53 -4 0 -44 -7 -89 -16 -45 -8 -84 -13 -86 -11 -2 2 50 102 116 223 l120 220
398 218 c218 120 401 222 405 226 5 4 -159 99 -365 210 -205 111 -389 213
-408 225 -23 15 -48 47 -74 94 -21 40 -36 74 -34 76 2 2 46 -16 98 -41 l95
-44 -40 35 c-22 19 -85 72 -141 117 -99 82 -102 85 -174 216 -39 73 -70 135
-68 137 2 3 49 -24 104 -59 54 -35 157 -100 228 -145 70 -45 130 -80 132 -78
3 2 -107 74 -243 160 l-248 157 -53 100 c-29 55 -55 100 -57 100 -1 0 -15 -20
-29 -45 -15 -25 -29 -45 -32 -45 -2 0 -42 25 -89 55 -76 49 -493 312 -521 328
-6 4 -14 4 -17 1z m116 -73 c23 -15 141 -90 262 -166 121 -76 226 -144 233
-150 12 -11 11 -18 -2 -43 -9 -17 -20 -33 -26 -37 -5 -3 -80 53 -167 125 -176
146 -346 287 -371 308 -15 11 -14 12 6 2 12 -6 41 -23 65 -39z m122 -486 c127
-59 231 -109 233 -110 2 -2 -6 -22 -18 -45 l-21 -41 -32 19 c-34 21 -450 284
-529 335 -27 17 -48 32 -48 33 0 2 42 -16 93 -40 50 -24 196 -92 322 -151z
m-245 -279 c177 -58 324 -107 327 -109 6 -7 -24 -64 -37 -72 -6 -4 -142 55
-303 130 -297 140 -327 154 -316 155 3 0 151 -47 329 -104z m1060 -44 c66 -53
121 -102 115 -102 -3 0 -36 15 -73 34 -52 26 -71 42 -85 70 -22 46 -21 53 1
34 9 -8 28 -24 42 -36z m-1265 -277 c132 -25 245 -47 250 -49 6 -2 -11 -13
-36 -26 l-45 -22 -215 71 c-118 38 -209 70 -204 71 6 0 119 -20 250 -45z
m-302 -352 c-7 -2 -21 -2 -30 0 -10 3 -4 5 12 5 17 0 24 -2 18 -5z m865 -685
c16 -29 29 -54 27 -56 -3 -3 -929 -61 -932 -58 -3 3 835 164 859 165 9 1 28
-20 46 -51z m577 -277 c-33 -15 -61 -27 -63 -25 -11 8 23 43 45 47 73 11 77 5
18 -22z"/>
<path d="M795 3214 c91 -10 274 -19 267 -13 -4 4 -74 9 -157 12 -82 3 -132 3
-110 1z"/>
<path d="M2095 2282 c-88 -42 -203 -97 -255 -121 -52 -24 -147 -69 -210 -99
-108 -51 -344 -162 -543 -254 -48 -23 -85 -43 -83 -45 4 -4 40 12 336 152 102
48 217 102 255 120 39 18 111 52 160 75 50 23 117 55 150 70 33 15 114 53 179
84 65 31 120 55 122 54 1 -2 -100 -87 -224 -190 -476 -391 -641 -528 -648
-540 -10 -16 -52 -50 581 472 354 292 364 300 350 299 -6 0 -82 -35 -170 -77z"/>
<path d="M2140 2037 c-140 -90 -361 -230 -490 -311 -249 -158 -284 -182 -260
-173 9 2 222 136 474 296 252 161 460 290 462 289 4 -4 -210 -234 -611 -657
-44 -46 -87 -92 -95 -101 -8 -9 -76 -81 -150 -159 -74 -79 -134 -150 -134
-157 1 -7 -4 -10 -11 -8 -16 7 -40 -22 -25 -31 5 -3 85 56 177 132 91 76 250
207 352 292 102 85 289 239 414 343 126 104 230 188 232 186 2 -2 -20 -35 -48
-74 -67 -92 -135 -185 -400 -549 -120 -165 -246 -338 -280 -385 -125 -171
-159 -222 -152 -228 6 -7 20 7 255 258 242 258 284 303 367 390 45 47 94 99
109 115 99 109 307 325 310 322 4 -4 -37 -82 -209 -392 -309 -558 -360 -651
-432 -783 -43 -78 -75 -145 -71 -149 3 -3 8 -4 9 -2 9 10 158 214 307 419 90
124 180 248 200 275 20 28 74 102 120 165 46 63 100 138 120 165 20 28 61 84
90 125 29 41 58 79 62 85 12 14 -7 -37 -300 -772 -158 -398 -255 -653 -247
-653 16 0 28 28 18 42 -3 6 -1 8 4 5 6 -4 159 263 364 637 195 354 355 643
357 641 3 -2 -361 -1429 -373 -1462 -2 -7 1 -13 8 -13 7 0 85 186 175 413 321
811 402 1012 397 972 -34 -263 -55 -451 -52 -464 3 -12 5 -10 6 4 1 11 17 141
36 290 19 148 33 271 31 272 -1 2 -130 -320 -286 -714 -156 -395 -286 -721
-290 -726 -4 -4 80 331 187 745 106 413 191 753 190 755 -2 1 -28 -44 -59
-100 -79 -143 -454 -825 -578 -1050 -57 -103 -105 -186 -107 -184 -1 2 117
305 263 673 146 368 275 692 286 719 11 28 15 46 10 40 -5 -5 -206 -281 -447
-613 -241 -331 -440 -601 -442 -598 -3 3 74 148 170 323 235 426 482 875 518
943 l30 55 -67 -70 c-98 -101 -230 -240 -384 -405 -171 -182 -456 -486 -534
-567 -33 -35 -61 -61 -63 -59 -2 2 193 275 435 607 241 332 442 610 447 618 5
8 -18 -8 -51 -35 -259 -215 -939 -777 -1033 -853 -70 -57 -102 -79 -81 -55 51
57 162 176 265 284 49 53 151 161 225 240 74 80 175 188 224 240 135 143 236
251 281 298 21 23 37 42 35 42 -3 0 -120 -74 -260 -163z m-496 -1242 c-4 -8
-11 -15 -16 -15 -6 0 -5 6 2 15 7 8 14 15 16 15 2 0 1 -7 -2 -15z m336 -212
c0 -5 -10 -19 -21 -33 l-20 -25 16 33 c15 30 25 41 25 25z"/>
<path d="M3266 870 c-104 -407 -192 -738 -194 -735 -2 2 1 49 8 105 7 55 11
102 8 105 -2 3 -13 -58 -22 -136 -16 -127 -16 -162 -1 -147 3 2 89 334 193
736 l187 730 3 -756 c2 -836 9 -916 46 -602 8 69 47 377 86 684 39 307 70 568
68 580 -2 12 -15 -78 -31 -199 -15 -121 -55 -440 -90 -710 l-62 -490 -5 787
-5 787 -189 -739z m-199 -772 c-3 -8 -6 -5 -6 6 -1 11 2 17 5 13 3 -3 4 -12 1
-19z"/>
<path d="M3655 1535 c-4 -37 -5 -69 -2 -72 3 -2 8 25 12 62 4 36 5 68 2 71 -2
3 -8 -25 -12 -61z"/>
<path d="M3146 836 c-16 -125 -26 -229 -24 -231 6 -6 61 431 56 445 -2 7 -17
-89 -32 -214z"/>
<path d="M3100 480 c-7 -61 -11 -113 -8 -115 2 -3 10 45 18 105 7 61 11 113 8
115 -2 3 -10 -45 -18 -105z"/>
</g>
</svg>
